<svg xmlns="http://www.w3.org/2000/svg" viewBox="0 0 300 470" font-family="Arial" font-size="10">
  <!-- contorno do veiculo -->
  <rect x="20" y="30" width="260" height="420" fill="#fff" stroke="#222" stroke-width="2" rx="20"/>

  <!-- legenda frente/traseira -->
  <text x="150" y="20" text-anchor="middle" font-weight="bold">↑ FRENTE</text>
  <text x="150" y="465" text-anchor="middle" font-weight="bold">↓ TRASEIRA (porta do porta-malas)</text>

  <!-- bancos dianteiros -->
  <rect x="35" y="45" width="100" height="55" fill="#dde" stroke="#333"/>
  <text x="85" y="78" text-anchor="middle">BANCO PASSAGEIRO</text>
  <rect x="165" y="45" width="100" height="55" fill="#dde" stroke="#333"/>
  <text x="215" y="78" text-anchor="middle">BANCO MOTORISTA</text>

  <!-- COLUNA ESQUERDA (passageiro) -->
  <rect x="35" y="115" width="80" height="120" fill="#cfd" stroke="#333"/>
  <text x="75" y="170" text-anchor="middle">BANCO</text>
  <text x="75" y="183" text-anchor="middle">TRASEIRO</text>
  <text x="75" y="196" text-anchor="middle">BIPARTIDO</text>
  <text x="75" y="215" text-anchor="middle" font-style="italic" font-size="9">(removivel)</text>

  <rect x="35" y="245" width="80" height="200" fill="#fcc" stroke="#333"/>
  <text x="75" y="335" text-anchor="middle">CAIXOTE</text>
  <text x="75" y="350" text-anchor="middle">/ SOFA</text>
  <text x="75" y="370" text-anchor="middle" font-size="9">(so lado</text>
  <text x="75" y="382" text-anchor="middle" font-size="9">passageiro)</text>

  <!-- COLUNA CENTRAL (corredor) -->
  <rect x="115" y="115" width="50" height="330" fill="#f5f5f5" stroke="#999" stroke-dasharray="4"/>
  <text x="140" y="270" text-anchor="middle" font-weight="bold">C</text>
  <text x="140" y="285" text-anchor="middle" font-weight="bold">O</text>
  <text x="140" y="300" text-anchor="middle" font-weight="bold">R</text>
  <text x="140" y="315" text-anchor="middle" font-weight="bold">R</text>
  <text x="140" y="330" text-anchor="middle" font-weight="bold">E</text>
  <text x="140" y="345" text-anchor="middle" font-weight="bold">D</text>
  <text x="140" y="360" text-anchor="middle" font-weight="bold">O</text>
  <text x="140" y="375" text-anchor="middle" font-weight="bold">R</text>
  <text x="140" y="430" text-anchor="middle" font-size="9">↓ ate traseira</text>

  <!-- COLUNA DIREITA (motorista / cozinha) -->
  <rect x="165" y="115" width="100" height="120" fill="#fc9" stroke="#333"/>
  <text x="215" y="170" text-anchor="middle">ARMARIO</text>
  <text x="215" y="185" text-anchor="middle">ALTO</text>

  <rect x="165" y="245" width="100" height="100" fill="#fda" stroke="#333"/>
  <text x="215" y="280" text-anchor="middle">BANCADA</text>
  <circle cx="215" cy="305" r="10" fill="none" stroke="#333" stroke-width="1.5"/>
  <text x="215" y="335" text-anchor="middle" font-size="9">FOGAREIRO</text>

  <rect x="165" y="355" width="100" height="90" fill="#cdf" stroke="#333"/>
  <text x="215" y="395" text-anchor="middle">CUBA / PIA</text>
  <circle cx="215" cy="415" r="12" fill="none" stroke="#333" stroke-width="1.5"/>
</svg>
