<svg xmlns="http://www.w3.org/2000/svg" viewBox="0 0 300 470" font-family="Arial" font-size="10">
  <!-- contorno do veiculo -->
  <rect x="20" y="30" width="260" height="420" fill="#fff" stroke="#222" stroke-width="2" rx="20"/>

  <text x="150" y="20" text-anchor="middle" font-weight="bold">↑ FRENTE</text>
  <text x="150" y="465" text-anchor="middle" font-weight="bold">↓ TRASEIRA</text>

  <!-- bancos dianteiros (mantidos) -->
  <rect x="35" y="45" width="100" height="55" fill="#dde" stroke="#333"/>
  <text x="85" y="78" text-anchor="middle">BANCO PASSAGEIRO</text>
  <rect x="165" y="45" width="100" height="55" fill="#dde" stroke="#333"/>
  <text x="215" y="78" text-anchor="middle">BANCO MOTORISTA</text>

  <!-- area onde estava o banco traseiro: vazia -->
  <rect x="35" y="115" width="80" height="120" fill="#fafafa" stroke="#bbb" stroke-dasharray="3"/>
  <text x="75" y="170" text-anchor="middle" font-style="italic" font-size="9">(banco</text>
  <text x="75" y="183" text-anchor="middle" font-style="italic" font-size="9">traseiro</text>
  <text x="75" y="196" text-anchor="middle" font-style="italic" font-size="9">REMOVIDO)</text>

  <!-- COLCHAO -->
  <rect x="35" y="115" width="130" height="330" fill="#ffe4b5" stroke="#c80" stroke-width="2" opacity="0.85"/>
  <text x="100" y="245" text-anchor="middle" font-weight="bold" font-size="12">★ COLCHAO ★</text>
  <text x="100" y="265" text-anchor="middle" font-size="10">~0,90 × 1,90 m</text>
  <text x="100" y="285" text-anchor="middle" font-size="9">(solteiro largo)</text>
  <text x="100" y="320" text-anchor="middle" font-size="9">apoiado em:</text>
  <text x="100" y="335" text-anchor="middle" font-size="9">• caixote (base)</text>
  <text x="100" y="350" text-anchor="middle" font-size="9">• tabuas removiveis</text>
  <text x="100" y="365" text-anchor="middle" font-size="9">  sobre corredor</text>

  <!-- caixote como base (contorno) -->
  <rect x="35" y="395" width="80" height="50" fill="none" stroke="#c80" stroke-dasharray="5" stroke-width="1.5"/>
  <text x="75" y="425" text-anchor="middle" font-size="9" fill="#933">CAIXOTE (base)</text>

  <!-- COZINHA INTACTA -->
  <rect x="165" y="115" width="100" height="120" fill="#fc9" stroke="#333"/>
  <text x="215" y="170" text-anchor="middle">ARMARIO</text>
  <text x="215" y="185" text-anchor="middle">ALTO</text>

  <rect x="165" y="245" width="100" height="100" fill="#fda" stroke="#333"/>
  <text x="215" y="280" text-anchor="middle">BANCADA</text>
  <circle cx="215" cy="305" r="10" fill="none" stroke="#333" stroke-width="1.5"/>
  <text x="215" y="335" text-anchor="middle" font-size="9">FOGAREIRO</text>

  <rect x="165" y="355" width="100" height="90" fill="#cdf" stroke="#333"/>
  <text x="215" y="395" text-anchor="middle">CUBA / PIA</text>
  <circle cx="215" cy="415" r="12" fill="none" stroke="#333" stroke-width="1.5"/>

  <!-- nota -->
  <text x="215" y="105" text-anchor="middle" font-size="8" font-style="italic" fill="#060">cozinha permanece</text>
  <text x="215" y="115" text-anchor="middle" font-size="8" font-style="italic" fill="#060">acessivel</text>
</svg>
